<svg xmlns="http://www.w3.org/2000/svg" width="1200" height="900" viewBox="0 0 1200 900" role="img" aria-label="Художественные колосья пшеницы">
  <defs>
    <linearGradient id="stem" x1="0" y1="0" x2="0.35" y2="1">
      <stop offset="0" stop-color="#d8c58d"/>
      <stop offset="0.55" stop-color="#b9903c"/>
      <stop offset="1" stop-color="#0a7a3b"/>
    </linearGradient>
    <linearGradient id="grain" x1="0" y1="0" x2="1" y2="1">
      <stop offset="0" stop-color="#fff2bf"/>
      <stop offset="0.45" stop-color="#d6b35e"/>
      <stop offset="1" stop-color="#9b7227"/>
    </linearGradient>
    <linearGradient id="leaf" x1="0" y1="0" x2="1" y2="1">
      <stop offset="0" stop-color="#e3eadc"/>
      <stop offset="0.5" stop-color="#9bb78e"/>
      <stop offset="1" stop-color="#0a7a3b"/>
    </linearGradient>
    <filter id="paper" x="-12%" y="-12%" width="124%" height="124%">
      <feGaussianBlur stdDeviation="0.45"/>
    </filter>
    <filter id="wash" x="-40%" y="-40%" width="180%" height="180%">
      <feGaussianBlur stdDeviation="16"/>
    </filter>
  </defs>

  <rect width="1200" height="900" fill="none"/>

  <g opacity="0.22" filter="url(#wash)">
    <ellipse cx="920" cy="380" rx="250" ry="360" fill="#d8c58d"/>
    <ellipse cx="1025" cy="620" rx="220" ry="230" fill="#0a7a3b" opacity="0.42"/>
    <ellipse cx="742" cy="680" rx="150" ry="210" fill="#fff2bf" opacity="0.74"/>
  </g>

  <g transform="translate(430 54)" fill="none" stroke-linecap="round" stroke-linejoin="round" filter="url(#paper)">
    <path d="M168 792 C178 652 206 514 265 352 C302 252 360 154 430 54" stroke="url(#stem)" stroke-width="7" opacity="0.56"/>
    <path d="M334 820 C328 676 350 524 420 344 C464 230 538 136 626 38" stroke="url(#stem)" stroke-width="8" opacity="0.62"/>
    <path d="M512 820 C490 690 512 542 590 366 C646 240 728 142 820 70" stroke="url(#stem)" stroke-width="7" opacity="0.50"/>
    <path d="M88 822 C106 690 132 574 178 440 C218 324 270 224 342 128" stroke="url(#stem)" stroke-width="5" opacity="0.35"/>
  </g>

  <g transform="translate(430 54)" fill="url(#grain)" opacity="0.58" filter="url(#paper)">
    <g transform="translate(430 54) rotate(34)">
      <ellipse cx="0" cy="0" rx="15" ry="48"/>
      <ellipse cx="-33" cy="38" rx="13" ry="43" transform="rotate(-28)"/>
      <ellipse cx="34" cy="42" rx="13" ry="43" transform="rotate(28)"/>
      <ellipse cx="-39" cy="88" rx="12" ry="39" transform="rotate(-31)"/>
      <ellipse cx="38" cy="92" rx="12" ry="39" transform="rotate(31)"/>
      <ellipse cx="-31" cy="138" rx="10" ry="34" transform="rotate(-29)"/>
      <ellipse cx="30" cy="142" rx="10" ry="34" transform="rotate(29)"/>
      <path d="M0 -50 C-8 18 -4 114 3 190" stroke="#9b7227" stroke-width="3" opacity="0.42" fill="none"/>
    </g>

    <g transform="translate(626 38) rotate(25)">
      <ellipse cx="0" cy="0" rx="17" ry="58"/>
      <ellipse cx="-40" cy="45" rx="15" ry="50" transform="rotate(-30)"/>
      <ellipse cx="40" cy="52" rx="15" ry="50" transform="rotate(30)"/>
      <ellipse cx="-44" cy="106" rx="14" ry="46" transform="rotate(-32)"/>
      <ellipse cx="43" cy="112" rx="14" ry="46" transform="rotate(32)"/>
      <ellipse cx="-35" cy="166" rx="12" ry="40" transform="rotate(-30)"/>
      <ellipse cx="34" cy="172" rx="12" ry="40" transform="rotate(30)"/>
      <ellipse cx="-20" cy="224" rx="9" ry="31" transform="rotate(-18)"/>
      <ellipse cx="20" cy="226" rx="9" ry="31" transform="rotate(18)"/>
      <path d="M0 -60 C-5 30 -2 152 2 264" stroke="#8d6722" stroke-width="3.4" opacity="0.45" fill="none"/>
    </g>

    <g transform="translate(820 70) rotate(20)" opacity="0.82">
      <ellipse cx="0" cy="0" rx="14" ry="46"/>
      <ellipse cx="-31" cy="42" rx="12" ry="39" transform="rotate(-29)"/>
      <ellipse cx="31" cy="48" rx="12" ry="39" transform="rotate(29)"/>
      <ellipse cx="-30" cy="94" rx="10" ry="34" transform="rotate(-31)"/>
      <ellipse cx="30" cy="100" rx="10" ry="34" transform="rotate(31)"/>
      <path d="M0 -48 C-2 28 0 96 2 158" stroke="#8d6722" stroke-width="2.8" opacity="0.42" fill="none"/>
    </g>

    <g transform="translate(342 128) rotate(35)" opacity="0.48">
      <ellipse cx="0" cy="0" rx="10" ry="34"/>
      <ellipse cx="-24" cy="34" rx="9" ry="29" transform="rotate(-28)"/>
      <ellipse cx="25" cy="39" rx="9" ry="29" transform="rotate(28)"/>
      <ellipse cx="-22" cy="74" rx="8" ry="25" transform="rotate(-28)"/>
      <ellipse cx="23" cy="79" rx="8" ry="25" transform="rotate(28)"/>
    </g>
  </g>

  <g transform="translate(430 54)" fill="url(#leaf)" opacity="0.32" filter="url(#paper)">
    <path d="M206 612 C106 584 62 534 28 472 C112 480 172 516 230 586 C238 600 226 618 206 612Z"/>
    <path d="M386 604 C474 548 548 536 646 566 C556 636 478 658 390 632 C374 628 371 613 386 604Z"/>
    <path d="M520 686 C624 638 724 644 842 702 C714 742 616 748 520 716 C500 708 500 696 520 686Z" opacity="0.62"/>
    <path d="M116 720 C56 700 16 660 0 610 C74 620 126 650 160 700 C168 713 154 732 116 720Z" opacity="0.52"/>
  </g>

  <g opacity="0.26" stroke="#0a7a3b" stroke-width="2.2" stroke-linecap="round" fill="none">
    <path d="M720 170 C820 158 930 180 1038 240"/>
    <path d="M770 244 C892 230 1016 260 1132 336" opacity="0.70"/>
    <path d="M668 350 C778 344 906 380 1016 456" opacity="0.52"/>
  </g>
</svg>
