<svg xmlns="http://www.w3.org/2000/svg" width="1200" height="900" viewBox="0 0 1200 900" role="img" aria-label="Зерновое поле">
  <defs>
    <linearGradient id="sky" x1="0" x2="0" y1="0" y2="1">
      <stop offset="0" stop-color="#f7fbf4"/>
      <stop offset="0.42" stop-color="#eef7ea"/>
      <stop offset="1" stop-color="#fff7df"/>
    </linearGradient>
    <linearGradient id="field" x1="0" x2="1" y1="0" y2="1">
      <stop offset="0" stop-color="#e9f3dc"/>
      <stop offset="0.45" stop-color="#d5c17a"/>
      <stop offset="1" stop-color="#b1842d"/>
    </linearGradient>
    <linearGradient id="grain" x1="0" x2="0" y1="0" y2="1">
      <stop offset="0" stop-color="#f5d87c"/>
      <stop offset="0.46" stop-color="#c89431"/>
      <stop offset="1" stop-color="#7f5a16"/>
    </linearGradient>
    <linearGradient id="green" x1="0" x2="1" y1="0" y2="1">
      <stop offset="0" stop-color="#0a7a3b"/>
      <stop offset="1" stop-color="#c6a34a"/>
    </linearGradient>
    <filter id="soft" x="-12%" y="-12%" width="124%" height="124%">
      <feGaussianBlur stdDeviation="1.1"/>
    </filter>
    <filter id="glow" x="-30%" y="-30%" width="160%" height="160%">
      <feGaussianBlur stdDeviation="18"/>
    </filter>
  </defs>

  <rect width="1200" height="900" fill="url(#sky)"/>
  <circle cx="1040" cy="180" r="210" fill="#f6d777" opacity="0.28" filter="url(#glow)"/>
  <circle cx="240" cy="120" r="250" fill="#0a7a3b" opacity="0.08" filter="url(#glow)"/>

  <path d="M0 502 C190 454 360 454 566 494 C780 536 955 492 1200 428 L1200 900 L0 900 Z" fill="#eff7e8"/>
  <path d="M0 596 C202 536 402 560 620 620 C805 670 1010 604 1200 552 L1200 900 L0 900 Z" fill="url(#field)" opacity="0.76"/>
  <path d="M0 680 C190 620 390 650 604 712 C830 778 1020 686 1200 642 L1200 900 L0 900 Z" fill="#cda74c" opacity="0.56"/>
  <path d="M0 746 C230 690 430 738 632 784 C835 830 1020 754 1200 718 L1200 900 L0 900 Z" fill="#a87525" opacity="0.28"/>

  <g opacity="0.45" stroke="#ffffff" stroke-width="2" fill="none">
    <path d="M120 594 C290 566 442 586 616 638"/>
    <path d="M66 682 C292 628 500 676 710 738"/>
    <path d="M358 540 C520 560 638 590 752 628"/>
    <path d="M716 592 C830 628 1000 610 1120 570"/>
  </g>

  <g transform="translate(610 140)" stroke="url(#grain)" stroke-linecap="round" stroke-linejoin="round" fill="none">
    <path d="M72 724 C54 590 76 438 122 264" stroke-width="9" opacity="0.76"/>
    <path d="M170 744 C158 598 180 444 238 238" stroke-width="10" opacity="0.82"/>
    <path d="M278 768 C256 616 288 448 372 188" stroke-width="11" opacity="0.90"/>
    <path d="M384 770 C368 628 404 476 500 232" stroke-width="9" opacity="0.72"/>
    <path d="M492 762 C484 642 514 506 592 294" stroke-width="8" opacity="0.62"/>
  </g>

  <g transform="translate(610 140)" fill="url(#grain)" opacity="0.78">
    <g transform="translate(104 244) rotate(-20)">
      <ellipse cx="0" cy="0" rx="14" ry="44"/><ellipse cx="22" cy="44" rx="13" ry="40"/><ellipse cx="-22" cy="50" rx="12" ry="38"/><ellipse cx="18" cy="92" rx="12" ry="36"/><ellipse cx="-20" cy="102" rx="11" ry="33"/>
    </g>
    <g transform="translate(222 218) rotate(-12)">
      <ellipse cx="0" cy="0" rx="16" ry="52"/><ellipse cx="26" cy="54" rx="15" ry="48"/><ellipse cx="-26" cy="58" rx="14" ry="46"/><ellipse cx="24" cy="112" rx="13" ry="42"/><ellipse cx="-24" cy="122" rx="12" ry="38"/><ellipse cx="16" cy="166" rx="10" ry="32"/>
    </g>
    <g transform="translate(350 172) rotate(-5)">
      <ellipse cx="0" cy="0" rx="18" ry="60"/><ellipse cx="30" cy="62" rx="17" ry="56"/><ellipse cx="-30" cy="66" rx="16" ry="54"/><ellipse cx="28" cy="128" rx="15" ry="48"/><ellipse cx="-28" cy="142" rx="14" ry="46"/><ellipse cx="22" cy="194" rx="12" ry="39"/><ellipse cx="-20" cy="202" rx="11" ry="34"/>
    </g>
    <g transform="translate(486 224) rotate(10)">
      <ellipse cx="0" cy="0" rx="15" ry="48"/><ellipse cx="24" cy="50" rx="14" ry="44"/><ellipse cx="-24" cy="58" rx="13" ry="42"/><ellipse cx="20" cy="108" rx="12" ry="36"/><ellipse cx="-18" cy="116" rx="11" ry="34"/>
    </g>
    <g transform="translate(588 296) rotate(16)" opacity="0.74">
      <ellipse cx="0" cy="0" rx="12" ry="38"/><ellipse cx="20" cy="42" rx="11" ry="34"/><ellipse cx="-18" cy="48" rx="10" ry="32"/><ellipse cx="16" cy="88" rx="9" ry="28"/>
    </g>
  </g>

  <g stroke="url(#green)" stroke-width="5" stroke-linecap="round" opacity="0.24" fill="none" filter="url(#soft)">
    <path d="M824 720 C810 640 828 544 860 448"/>
    <path d="M914 736 C900 646 928 520 980 382"/>
    <path d="M1030 740 C1010 650 1040 536 1118 396"/>
  </g>

  <g opacity="0.18" fill="#ffffff">
    <circle cx="138" cy="270" r="5"/>
    <circle cx="208" cy="312" r="3"/>
    <circle cx="992" cy="94" r="4"/>
    <circle cx="1088" cy="268" r="6"/>
    <circle cx="826" cy="112" r="3"/>
  </g>
</svg>
